<svg width="24" height="24" viewBox="0 0 24 24" fill="none" xmlns="http://www.w3.org/2000/svg">
<path d="M6.01314 15.78C5.95393 14.0832 6.04845 9.78153 7.2853 5.32148C7.29119 5.30025 7.30484 5.2819 7.32421 5.26977C9.63446 3.82361 13.3079 2.54952 15.1446 2.00439C15.236 1.97726 15.3067 2.08196 15.245 2.15119C12.8667 4.81759 11.8939 7.31985 11.5523 9.18745C11.5319 9.29908 11.6611 9.37625 11.754 9.31106C12.9833 8.44832 15.5629 7.29971 17.8637 8.42882C17.8854 8.4395 17.9107 8.44172 17.9341 8.44806C17.9921 8.46379 18.0214 8.53297 17.9819 8.5856C13.8386 14.1161 11.6918 19.574 11.0387 21.9332C11.0141 22.022 10.882 22.0223 10.8565 21.9338C10.0544 19.1455 10.3189 15.9062 10.5841 14.4496C10.5966 14.3808 10.5255 14.3249 10.4562 14.3491L6.14057 15.8592C6.08001 15.8804 6.01527 15.8409 6.01314 15.78Z" stroke="black" stroke-linecap="round"/>
</svg>
