<svg width="24" height="24" viewBox="0 0 24 24" fill="none" xmlns="http://www.w3.org/2000/svg">
<path d="M1 5.49307C3.83333 4.16179 9.1 1.39938 11.5 1M13 1C16.1667 2.16487 22.6 4.6943 23 5.49307M22.5 5.9923C19.5 7.65639 13.3 10.8847 12.5 10.4854C11.5 9.98613 3 7.48998 1.5 5.9923M22.5 11.9831C19.5 13.6471 13.3 16.8755 12.5 16.4761C11.5 15.9769 3 13.4807 1.5 11.9831M1 11.4838C2.11074 10.9619 3.74913 10.2201 5.47535 9.4869M19.299 9.4869C21.235 10.3228 22.8086 11.1015 23 11.4838M22.5 18.473C19.5 20.1371 13.3 23.3655 12.5 22.9661C11.5 22.4669 3 19.9707 1.5 18.473M1 17.9738C2.11074 17.4519 3.74913 16.7101 5.47535 15.9769M19.299 15.9769C21.235 16.8127 22.8086 17.5915 23 17.9738" stroke="black" stroke-linecap="round"/>
</svg>
