<svg width="24" height="24" viewBox="0 0 24 24" fill="none" xmlns="http://www.w3.org/2000/svg">
<path d="M22.9848 10.4764C23.4867 21.2966 11.4363 22.8483 10.9385 22.9196C10.1394 23.0341 9.31528 23.025 8.5 22.9004C5.3481 22.4187 2.3284 20.2109 1.39763 16.7491C-0.0871885 11.2265 2.95969 6.80842 4.41348 5.06631C8.11845 0.630335 17.8481 -1.25948 21.5477 5.06631C21.999 5.83791 22.3606 6.73175 22.6105 7.75811C22.8102 8.57791 22.9386 9.48226 22.9848 10.4764Z" stroke="black" stroke-linecap="round"/>
<path d="M12.9986 11.8615C13.0442 12.8451 11.9488 12.9862 11.9035 12.9927C11.8309 13.0031 11.7559 13.0023 11.6818 12.9909C11.3953 12.9472 11.1208 12.7464 11.0361 12.4317C10.9012 11.9297 11.1782 11.528 11.3103 11.3697C11.6471 10.9664 12.5316 10.7946 12.868 11.3697C12.909 11.4398 12.9419 11.5211 12.9646 11.6144C12.9827 11.6889 12.9944 11.7711 12.9986 11.8615Z" stroke="black" stroke-linecap="round"/>
<path d="M14.0352 13.9155C14.8792 11.8869 16.5 7.89445 16.5 7.5C16.5 7.10449 12.2634 8.95765 10.0737 9.966C10.025 9.98847 9.98684 10.0241 9.96117 10.0713C8.9492 11.9317 7 15.7102 7 16.4999C7 17.2907 11.5595 15.2155 13.9182 14.0407C13.972 14.014 14.0121 13.9709 14.0352 13.9155Z" stroke="black" stroke-linecap="round"/>
</svg>
