<?xml version="1.0" encoding="utf-8"?>
<!-- Generator: Adobe Illustrator 27.6.1, SVG Export Plug-In . SVG Version: 6.00 Build 0)  -->
<svg version="1.1" id="Ebene_1" xmlns="http://www.w3.org/2000/svg" xmlns:xlink="http://www.w3.org/1999/xlink" x="0px" y="0px"
	 viewBox="0 0 24 24" style="enable-background:new 0 0 24 24;" xml:space="preserve">
<style type="text/css">
	.st0{fill:none;stroke:#000000;stroke-width:1.6;stroke-linecap:round;}
</style>
<path class="st0" d="M11.3,18.7c0.3,0.4,0.8,0.5,1.2,0.2c0.4-0.2,0.6-0.7,0.5-1.2 M11.3,18.7c-0.1-0.1-0.1-0.1-0.1-0.2
	c-0.3-0.5-0.1-1.2,0.4-1.4c0.5-0.3,1-0.1,1.3,0.4c0,0.1,0.1,0.2,0.1,0.3 M11.3,18.7c0.4,0.2,1.3,0.2,1.6-1 M11.7,13
	c-0.6-3-1.3-8,0.2-8s0.8,4.9,0.2,8C12,13.2,11.8,13.2,11.7,13z M10.9,22.9c0.5-0.1,12.5-1.6,12-12.4c0-1-0.2-1.9-0.4-2.7
	c-0.2-1-0.6-1.9-1.1-2.7C17.7-1.2,8,0.7,4.3,5.1c-1.5,1.7-4.5,6.2-3,11.7c0.9,3.5,4,5.7,7.1,6.2C9.3,23,10.1,23,10.9,22.9z"/>
</svg>
