<svg width="24" height="24" viewBox="0 0 24 24" fill="none" xmlns="http://www.w3.org/2000/svg">
<path d="M20.9655 6.70327C19.8161 4.5972 16 0.784097 9.93103 2.38028C2.34483 4.3755 2 10.3612 2 12.6889M7.17241 8.03342C4.41379 10.3612 6.68966 14.6842 4.75862 17.3445M9.93103 5.70565C12.3448 5.15142 17.4483 5.2401 18.5517 10.0286C18.8678 11.8524 19.2 16.1 18 18.5M22 9.6961V13.0215M7.51724 19.0072C7.86207 18.5638 8.55172 17.2115 8.55172 15.3492C8.55172 13.0215 8.2069 8.69849 12 8.69849C15.0345 8.69849 15.7931 10.6937 15.7931 11.6913C15.908 13.6866 15.931 17.943 15.1034 19.0072M12 11.3588C12.3448 13.7974 12.5517 19.3397 10.6207 22" stroke="black" stroke-linecap="round"/>
</svg>
