<svg width="24" height="24" viewBox="0 0 24 24" fill="none" xmlns="http://www.w3.org/2000/svg">
<path d="M14.6608 17.3607C15.9788 17.329 19.0199 16.9144 20.2334 16.5195C20.9657 16.2812 21.5807 16.5481 21.5026 17.4249C21.4245 18.3016 18.6225 19.8717 16.3282 20.2363C14.9288 20.4586 11.6224 20.7699 9.59171 20.2363C7.561 19.7026 5.23088 21.8564 4.31967 23M14.8634 16.7102C16.3116 16.5037 19.6045 15.8245 20.4772 15.4236C21.307 15.0424 21.844 15.4236 21.9905 15.9954C22.023 16.1543 21.9905 16.5291 21.5999 16.7578M13.4966 15.4234C14.6682 14.9152 17.2066 14.1083 17.9876 14.9469M14.4242 15.9953C14.5706 15.9 16.5721 15.5188 18.4759 14.804C18.8827 14.6769 19.7451 14.6229 19.9403 15.4235M1 17.6154C2.74886 15.6712 7.24372 12.7359 10.5202 15.1498C10.5503 15.172 10.588 15.1824 10.6254 15.1778C11.8185 15.0298 14.2176 15.145 14.7171 16.7577C15.2248 18.3969 11.2187 17.8855 9.15214 17.4249M11.4873 13.2212L11.5568 13.1578C12.8416 11.9859 13.8936 10.9058 14.7449 9.91455C20.2869 3.46143 17.3219 0.775445 14.6742 1.0563C12.7261 1.26286 11.8056 2.93223 11.5351 3.90267C11.5264 3.93372 11.47 3.93066 11.4656 3.89879C11.298 2.66523 10.4252 0.637069 8.0105 1.05602C4.82354 1.60897 3.66464 8.52095 10.9077 13.221" stroke="black" stroke-linecap="round"/>
</svg>
