<svg width="24" height="24" viewBox="0 0 24 24" fill="none" xmlns="http://www.w3.org/2000/svg">
<path d="M14 9H20M14 12.1778H19M14 15H20M6.6904 10.8189C6.78014 10.8064 8.95288 10.5361 8.86239 8.65099C8.85407 8.47779 8.83091 8.32023 8.79491 8.1774M6.6904 10.8189C7.88129 10.7455 8.48644 10.3103 8.75727 9.78887M6.6904 10.8189C6.54631 10.8388 6.39772 10.8372 6.25072 10.8155M8.79491 8.1774C8.74984 7.99859 8.68465 7.84287 8.60328 7.70844M8.79491 8.1774C8.95716 8.59656 9.04208 9.24047 8.75727 9.78887M8.60328 7.70844C7.93622 6.60635 6.18193 6.9356 5.5139 7.70844C5.25178 8.01195 4.70241 8.78167 4.97013 9.74382C5.13795 10.3469 5.68242 10.7316 6.25072 10.8155M8.60328 7.70844C8.85711 8.04102 9.22539 8.81987 8.91053 9.5262M8.75727 9.78887C8.82028 9.70316 8.87084 9.61526 8.91053 9.5262M6.25072 10.8155C7.0022 10.9374 8.58624 10.8503 8.91053 9.5262M10.6363 13.3511L10.7979 13.6525C10.9932 14.0169 11.082 14.4396 10.9034 14.8114M10.6363 13.3511C10.2862 12.6981 9.57059 12.2855 8.78777 12.2855H5.1422C4.35938 12.2855 3.64375 12.6981 3.29367 13.3511L3.21438 13.499C2.96925 13.9563 2.90928 14.4962 3.16706 14.9474C3.95385 16.3245 5.31422 16.9136 6.6904 16.9489M10.6363 13.3511C10.9956 14.3237 10.7094 16.4048 6.6904 16.9489M10.9034 14.8114C10.2781 16.113 8.47102 16.9946 6.6904 16.9489M10.9034 14.8114C10.7292 15.6741 9.64272 17.3094 6.6904 16.9489M21.1409 4.35802C17.4304 3.82921 5.83944 3.93502 2.50002 4.35807M22.5323 4.88689C22.7378 9.41663 23.0963 17.4864 22.9758 19.9999M22.0003 20C20.5877 18.9684 7.44553 18.7104 4.62046 18.7104C1.7954 18.7104 1.06931 19.0406 1.44226 17.6787C1.74859 16.5601 1.52554 9.29563 1 4.63991" stroke="black" stroke-linecap="round"/>
</svg>
