<svg width="24" height="24" viewBox="0 0 24 24" fill="none" xmlns="http://www.w3.org/2000/svg">
<path d="M1 8.90387C2.08333 9.29628 4.4 10.0563 5 9.95717M7 6.7796C6.51515 5.8784 5.43636 3.97943 5 3.5932M15 4.65533L16 2M19 7.84174L21 6.02869M20 14.2145H23M19 18.4631L21.5 20.0563M5.5133 17.311C5.6169 18.0312 6.59121 19.0953 7.15092 19.685C7.37144 19.9174 7.469 20.2473 7.33377 20.5377C7.03438 21.1807 6.50581 21.5829 6.05386 21.8043C5.73346 21.9613 5.36284 21.8396 5.14528 21.5568C4.81031 21.1214 4.41356 20.5205 4.17765 19.9227C4.09854 19.7223 4.10982 19.512 4.17765 19.3148M8.5625 20.0563C11.3125 16.794 14.0625 19.7528 16.827 16.8607C18.6286 14.805 18.9601 7.54676 13.3681 6.02869C6.37805 4.13111 5.5133 11.4052 5.80155 14.4887C5.92663 15.8268 5.59094 16.9617 5.14636 17.8127M8.04472 14.2145C7.8874 13.2259 8.0582 10.9921 10 9.966M12 8.90387H13M5.14636 17.8127C5.58639 18.4594 6.62408 19.7115 7.1875 20.3033M5.14636 17.8127C5.10695 17.8881 5.06668 17.9613 5.0258 18.0322M4.8791 18.2734C4.92858 18.1963 4.97761 18.1158 5.0258 18.0322M4.8791 18.2734C5.24991 18.8713 6.09636 20.1589 6.5 20.5M4.8791 18.2734C4.82844 18.3524 4.77731 18.428 4.72615 18.5M5.0258 18.0322L5 18M5.0258 18.0322L7 20.5M4.43716 18.8716C4.66644 19.6585 5.2625 21.2322 5.8125 21.2322M4.43716 18.8716C4.4728 18.8298 4.50884 18.7862 4.54512 18.7407M4.43716 18.8716C4.32538 19.0025 4.23281 19.1543 4.17765 19.3148M4.54512 18.7407C5.03008 19.6805 6.1 21.4947 6.5 21.2322M4.54512 18.7407C4.60504 18.6655 4.66562 18.5852 4.72615 18.5M6.5 21.2322L7.1875 20.4925M6.5 21.2322V21M6.5 20.5C6.50308 20.5026 6.49697 20.49 6.5 20.4925M6.5 20.5V21M6.5 21L4.72615 18.5M4.17765 19.3148C4.47233 20.1637 5.24936 21.7894 6 21.5" stroke="black" stroke-linecap="round"/>
</svg>
