<svg width="24" height="24" viewBox="0 0 24 24" fill="none" xmlns="http://www.w3.org/2000/svg">
<path d="M2.58142 2.08086C4.86569 1.92147 9.75051 1.88959 11.0156 3.03721C12.5971 4.47173 16.8142 8.29704 18.9227 9.73157C21.0313 11.1661 24.7213 14.5133 22.0856 16.426C19.4499 18.3387 17.8684 21.2077 16.8142 21.6859C15.7599 22.1641 14.7056 22.1641 13.6513 21.2077C12.5971 20.2514 2.05428 11.1661 1.52714 8.77522C1 6.38435 0.472861 2.55896 2.05428 2.08079M6.35525 7.98904C6.42313 7.97931 8.06636 7.76772 7.99792 6.29224C7.91921 4.59552 6.08155 4.81687 5.46548 5.5545C5.26723 5.79206 4.85175 6.39452 5.05422 7.1476C5.21398 7.74178 5.82501 8.06503 6.35525 7.98904Z" stroke="black" stroke-linecap="round"/>
</svg>
