<svg width="24" height="24" viewBox="0 0 24 24" fill="none" xmlns="http://www.w3.org/2000/svg">
<path d="M23 15.2232C22.8776 13.6409 21.6702 13.0466 20.8679 13.0003C20.8034 12.9966 20.7421 13.0251 20.699 13.0736L15.1096 19.367C15.0882 19.3911 15.0721 19.4194 15.0623 19.4502L14.1813 22.2306M22.9468 15.2775L17.4053 21.9053C17.378 21.9379 17.3423 21.9621 17.3022 21.9754L14.9544 22.7498M17.3104 21.9551C17.1685 21.2855 16.5447 19.9681 15.1835 19.6207M14.2798 22.9723L14.2224 22.9913C14.091 23.0346 13.9662 22.9094 14.0083 22.7765M14.2798 22.9723C14.3072 22.9691 14.2912 22.9254 14.0083 22.7765M14.2798 22.9723L14.5563 22.8811M14.0083 22.7765L14.0673 22.5903M14.5563 22.8811C14.4466 22.7842 14.1953 22.5903 14.0673 22.5903M14.5563 22.8811L14.8006 22.8005M14.0673 22.5903L14.1325 22.3845M14.8006 22.8005C14.653 22.6774 14.3127 22.4219 14.1325 22.3845M14.8006 22.8005L14.9544 22.7498M14.1325 22.3845L14.1813 22.2306M14.9544 22.7498C14.8722 22.6251 14.6026 22.3467 14.1813 22.2306M6.45203 9.29229C6.5516 9.27832 8.96226 8.97447 8.86185 6.85567C8.85263 6.66099 8.82693 6.4839 8.78699 6.32337M6.45203 9.29229C7.77333 9.2098 8.44474 8.72074 8.74522 8.13461M6.45203 9.29229C6.29217 9.31472 6.1273 9.31293 5.96421 9.28853M8.78699 6.32337C8.73698 6.12239 8.66465 5.94736 8.57438 5.79626M8.78699 6.32337C8.967 6.7945 9.06122 7.51823 8.74522 8.13461M8.57438 5.79626C7.83427 4.55755 5.88788 4.92761 5.14671 5.79626C4.85588 6.1374 4.24636 7.00255 4.54339 8.08398C4.72959 8.76188 5.33368 9.1942 5.96421 9.28853M8.57438 5.79626C8.856 6.17008 9.2646 7.04549 8.91527 7.83939M8.74522 8.13461C8.81514 8.03828 8.87123 7.93948 8.91527 7.83939M5.96421 9.28853C6.79798 9.42558 8.55547 9.32762 8.91527 7.83939M21.1406 1.49227C17.4302 0.765159 5.83938 0.910658 2.5 1.49235M22.532 2.21947C22.622 4.94741 22.7414 8.6091 22.837 12.1537M1 1.87988C1.52553 8.28149 1.74859 18.2701 1.44226 19.8082C1.06931 21.6809 1.79539 21.2267 4.62042 21.2267C5.68126 21.2267 8.19693 21.2768 11 21.4144M12.0171 18H4.46385C2.55299 18 7.13906 13.3056 7.52123 12.9445C7.9034 12.5834 9.04992 14.0279 9.43209 14.7501C9.73783 15.3279 10.069 14.9908 10.1964 14.7501C11.343 13.0649 13.7124 9.62222 14.0182 9.33333C14.3239 9.04444 14.6551 9.4537 14.7825 9.69444L16.4092 12" stroke="black" stroke-linecap="round"/>
</svg>
