<svg width="24" height="24" viewBox="0 0 24 24" fill="none" xmlns="http://www.w3.org/2000/svg">
<path d="M19.198 9.91732L15.1753 11.1211M19.198 9.91732C19.2654 9.91732 19.3305 9.89952 19.3922 9.86627M19.198 9.91732V7.24208M19.198 9.91732C19.1306 9.91732 19.0655 9.89952 19.0038 9.86626M19.198 7.24208L15.1753 6.21671M19.198 7.24208C19.2654 7.24208 19.3305 7.25989 19.3922 7.29314M19.198 7.24208C19.1306 7.24208 19.0655 7.25989 19.0038 7.29314M1.29283 7.77702C1.07178 8.02968 0.762461 8.70446 1.29298 9.38218M1.29283 7.77702C1.23711 8.20161 1.15913 9.11707 1.29298 9.38218M1.29283 7.77702L1.4023 7.73379M17.6507 1.31723L2.51815 7.29314M17.6507 15.8425L2.51815 9.86605M1.29298 9.38218L1.4023 9.42536M9.62893 12.6743L9.64396 12.8224M6.73573 11.5317L6.76531 11.6934M2.75221 7.24208C2.59011 7.76227 2.44274 8.9364 2.75221 9.91732M1.4023 7.73379V9.42536M1.4023 7.73379L1.57529 7.66547M1.4023 9.42536L1.57529 9.49368M1.57529 7.66547V9.49368M1.57529 7.66547L1.72974 7.60448M1.57529 9.49368L1.72974 9.55468M1.72974 7.60448V9.55468M1.72974 7.60448L1.89589 7.53887M1.72974 9.55468L1.89589 9.62029M1.89589 7.53887V9.62029M1.89589 7.53887L2.04005 7.48194M1.89589 9.62029L2.04005 9.67723M2.04005 7.48194V9.67723M2.04005 7.48194L2.19591 7.42039M2.04005 9.67723L2.19591 9.73878M2.19591 7.42039V9.73878M2.19591 7.42039L2.33323 7.36616M2.19591 9.73878L2.33323 9.79302M2.33323 7.36616V9.79302M2.33323 7.36616L2.51815 7.29314M2.33323 9.79302L2.51815 9.86605M2.51815 7.29314V9.86605M19.7805 7.82061C19.8592 8.03627 19.9054 8.2978 19.9054 8.5797C19.9054 8.8616 19.8592 9.12313 19.7805 9.33879M19.7805 7.82061V9.33879M19.7805 7.82061C19.734 7.69313 19.676 7.58168 19.6094 7.49153M19.7805 9.33879C19.734 9.46627 19.676 9.57772 19.6094 9.66788M19.6094 9.66788V7.49153M19.6094 9.66788C19.5444 9.75598 19.4711 9.82375 19.3922 9.86627M19.6094 7.49153C19.5444 7.40342 19.4711 7.33565 19.3922 7.29314M19.3922 7.29314V9.86627M19.0038 7.29314V9.86626M19.0038 7.29314C18.9249 7.33565 18.8516 7.40342 18.7865 7.49153M19.0038 9.86626C18.9249 9.82375 18.8516 9.75598 18.7865 9.66788M18.7865 9.66788V7.49153M18.7865 9.66788C18.7154 9.57153 18.6541 9.45085 18.6061 9.31228M18.7865 7.49153C18.7154 7.58788 18.6541 7.70855 18.6061 7.84712M18.6061 7.84712C18.5331 8.05756 18.4906 8.30926 18.4906 8.5797C18.4906 8.85015 18.5331 9.10185 18.6061 9.31228M18.6061 7.84712V9.31228M9.64396 12.8224L6.76531 11.6934M9.64396 12.8224L9.66846 13.0638M6.76531 11.6934L6.81005 11.938M6.81005 11.938L9.66846 13.0638M6.81005 11.938L6.85137 12.1639M9.66846 13.0638L9.68883 13.2644M9.68883 13.2644L6.85137 12.1639M9.68883 13.2644L9.71274 13.5M6.85137 12.1639L6.89341 12.3938M6.89341 12.3938L9.71274 13.5M6.89341 12.3938L6.93197 12.6046M9.71274 13.5L9.73244 13.6941M6.93197 12.6046L9.73244 13.6941M6.93197 12.6046L6.9718 12.8224M9.73244 13.6941L9.75362 13.9028M9.75362 13.9028L10.4443 20.7074C10.5072 21.6438 10.8422 22.6693 9.95796 22.9368C8.87835 23.2634 8.76428 22.268 8.54324 21.2425L7.61481 16.3379L6.9718 12.8224M9.75362 13.9028L6.9718 12.8224M14.6885 8.57984C14.6885 12.7661 16.5491 16.1597 18.8442 16.1597C21.1394 16.1597 23 12.7661 23 8.57984C23 4.39361 21.1394 1 18.8442 1C16.5491 1 14.6885 4.39361 14.6885 8.57984Z" stroke="black" stroke-linecap="round"/>
</svg>
