<svg width="24" height="24" viewBox="0 0 24 24" fill="none" xmlns="http://www.w3.org/2000/svg">
<path d="M18.2727 7.94677H19.5818M17.6182 19.6612H20.2364M3.43528 14.6742V5.66123C3.43528 5.55161 3.41387 5.4433 3.39798 5.33488C3.31655 4.77901 3.62589 3.82524 5.44055 3.45608C7.94713 2.94617 19.9787 2.43625 20.48 4.47591M13.1969 15.826C9.48181 15.8703 5.42971 16.0653 2.43265 16.2039C-0.575248 16.7138 1.93133 19.2635 2.93397 19.7734C3.5462 20.0847 8.83144 20.0158 13.1969 19.915M15 8.28147C15 7.72364 15.3273 6.54104 16.6364 6.27328C18.2727 5.93858 22.5273 5.60388 22.8545 7.27738C23.1818 8.95087 22.8545 17.9001 22.8545 18.1113C22.8545 18.3224 22.8545 21 21.2182 21H16.6364C15.6545 21 15 20.3306 15 18.6571V8.28147Z" stroke="black" stroke-linecap="round"/>
</svg>
