<svg width="24" height="24" viewBox="0 0 24 24" fill="none" xmlns="http://www.w3.org/2000/svg">
<path d="M18.8244 4.19708C18.7993 3.63703 18.7819 3.14468 18.7819 2.74842C18.7819 0.133609 8.75228 1.11434 3.73765 1.5229C0.174244 1.81322 0.96641 11.7369 1.3623 15.0054C1.45339 15.7574 2.15348 16.2496 3.2158 16.557M20.8244 7.19708C20.7993 6.63703 20.7819 6.14468 20.7819 5.74842C20.7819 3.13361 10.7523 4.11434 5.73765 4.5229C2.17424 4.81322 2.96641 14.7369 3.3623 18.0054C3.45355 18.7587 4.156 19.2514 5.22154 19.5586M7.82416 10.1971C7.84267 10.1945 8.29083 10.1381 8.27216 9.7446C8.27044 9.70845 8.26567 9.67556 8.25824 9.64575C8.24895 9.60843 8.2355 9.57592 8.21872 9.54787C8.08113 9.31784 7.71928 9.38656 7.58149 9.54787C7.52743 9.61122 7.41411 9.77187 7.46933 9.97269C7.50395 10.0986 7.61625 10.1789 7.73347 10.1964C7.76379 10.2009 7.79444 10.2012 7.82416 10.1971ZM10.2787 10.1971C10.2972 10.1945 10.7454 10.1381 10.7267 9.7446C10.725 9.70845 10.7202 9.67556 10.7128 9.64575C10.7035 9.60843 10.69 9.57592 10.6733 9.54787C10.5357 9.31784 10.1738 9.38656 10.036 9.54787C9.98197 9.61122 9.86866 9.77187 9.92388 9.97269C9.95849 10.0986 10.0708 10.1789 10.188 10.1964C10.2183 10.2009 10.249 10.2012 10.2787 10.1971ZM12.7333 10.1971C12.7518 10.1945 13.1999 10.1381 13.1813 9.7446C13.1795 9.70845 13.1748 9.67556 13.1673 9.64575C13.158 9.60843 13.1446 9.57592 13.1278 9.54787C12.9902 9.31784 12.6284 9.38656 12.4906 9.54787C12.4365 9.61122 12.3232 9.77187 12.3784 9.97269C12.413 10.0986 12.5253 10.1789 12.6426 10.1964C12.6729 10.2009 12.7035 10.2012 12.7333 10.1971ZM7.73765 7.5229C12.7523 7.11434 22.7819 6.13361 22.7819 8.74842C22.7819 12.0169 23.9696 21.8228 20.8021 22.2311C17.6594 22.6361 5.75819 24.2739 5.3623 21.0054C4.96641 17.7368 4.17424 7.81322 7.73765 7.5229ZM3.82416 4.19708C3.84267 4.19448 4.29083 4.13806 4.27216 3.7446C4.27044 3.70845 4.26567 3.67556 4.25824 3.64575C4.24895 3.60843 4.2355 3.57592 4.21872 3.54787C4.08113 3.31784 3.71928 3.38656 3.58149 3.54787C3.52743 3.61122 3.41411 3.77187 3.46933 3.97269C3.50395 4.09858 3.61625 4.17886 3.73347 4.19638C3.76379 4.20091 3.79444 4.20124 3.82416 4.19708ZM6.27871 4.19708C6.29722 4.19448 6.74537 4.13806 6.72671 3.7446C6.72499 3.70845 6.72021 3.67556 6.71279 3.64575C6.70349 3.60843 6.69005 3.57592 6.67326 3.54787C6.53567 3.31784 6.17383 3.38656 6.03604 3.54787C5.98197 3.61122 5.86866 3.77187 5.92388 3.97269C5.95849 4.09858 6.0708 4.17886 6.18802 4.19638C6.21834 4.20091 6.24899 4.20124 6.27871 4.19708ZM8.73325 4.19708C8.75176 4.19448 9.19992 4.13806 9.18125 3.7446C9.17954 3.70845 9.17476 3.67556 9.16733 3.64575C9.15804 3.60843 9.14459 3.57592 9.12781 3.54787C8.99022 3.31784 8.62837 3.38656 8.49058 3.54787C8.43652 3.61122 8.3232 3.77187 8.37842 3.97269C8.41304 4.09858 8.52534 4.17886 8.64256 4.19638C8.67288 4.20091 8.70353 4.20124 8.73325 4.19708ZM5.82416 7.19708C5.84267 7.19448 6.29083 7.13806 6.27216 6.7446C6.27044 6.70845 6.26567 6.67556 6.25824 6.64575C6.24895 6.60843 6.2355 6.57592 6.21872 6.54787C6.08113 6.31784 5.71928 6.38656 5.58149 6.54787C5.52743 6.61122 5.41411 6.77187 5.46933 6.97269C5.50395 7.09858 5.61625 7.17886 5.73347 7.19638C5.76379 7.20091 5.79444 7.20124 5.82416 7.19708ZM8.27871 7.19708C8.29722 7.19448 8.74537 7.13806 8.72671 6.7446C8.72499 6.70845 8.72021 6.67556 8.71279 6.64575C8.70349 6.60843 8.69005 6.57592 8.67326 6.54787C8.53567 6.31784 8.17383 6.38656 8.03604 6.54787C7.98197 6.61122 7.86866 6.77187 7.92388 6.97269C7.95849 7.09858 8.0708 7.17886 8.18802 7.19638C8.21834 7.20091 8.24899 7.20124 8.27871 7.19708ZM10.7333 7.19708C10.7518 7.19448 11.1999 7.13806 11.1813 6.7446C11.1795 6.70845 11.1748 6.67556 11.1673 6.64575C11.158 6.60843 11.1446 6.57592 11.1278 6.54787C10.9902 6.31784 10.6284 6.38656 10.4906 6.54787C10.4365 6.61122 10.3232 6.77187 10.3784 6.97269C10.413 7.09858 10.5253 7.17886 10.6426 7.19638C10.6729 7.20091 10.7035 7.20124 10.7333 7.19708Z" stroke="black" stroke-linecap="round"/>
</svg>
