<?xml version="1.0" encoding="utf-8"?>
<!-- Generator: Adobe Illustrator 27.6.1, SVG Export Plug-In . SVG Version: 6.00 Build 0)  -->
<svg version="1.1" id="Ebene_1" xmlns="http://www.w3.org/2000/svg" xmlns:xlink="http://www.w3.org/1999/xlink" x="0px" y="0px"
	 viewBox="0 0 314 120" style="enable-background:new 0 0 314 120;" xml:space="preserve">
<g>
	<path d="M35.8,1.7v30.7h-6.2V11l-7.9,21.4h-5.4L8.5,11.1v21.3H2.3V1.7h7.5l9.3,23.1l9.1-23.1H35.8z"/>
	<path d="M47.6,1.3v31h-6.2v-31H47.6z"/>
	<path d="M79.5,32.4h-6.2L59.4,11.3v21.1h-6.2v-31h6.2l13.9,21.3V1.3h6.2V32.4z"/>
	<path d="M91.3,1.3v31h-6.2v-31H91.3z"/>
	<path d="M130.4,1.7v30.7h-6.2V11l-7.9,21.4H111l-7.9-21.3v21.3H97V1.7h7.5l9.3,23.1L123,1.7H130.4z"/>
	<path d="M142,1.3v18.2c0,2.4,0.5,4.3,1.6,5.5c1.1,1.2,2.6,1.8,4.6,1.8c2,0,3.5-0.6,4.6-1.8c1.1-1.2,1.6-3,1.6-5.5V1.3h6.2v18.2
		c0,2.9-0.5,5.3-1.6,7.3s-2.5,3.5-4.4,4.4c-1.9,1-4,1.5-6.4,1.5c-3.7,0-6.7-1.1-8.9-3.3c-2.2-2.2-3.3-5.5-3.3-9.8V1.3H142z"/>
	<path d="M199.6,1.7v30.7h-6.2V11l-7.9,21.4h-5.4l-7.9-21.3v21.3h-6.2V1.7h7.5l9.3,23.1l9.1-23.1H199.6z"/>
	<path d="M6.6,44.3L15,68.9l8.4-24.6h6.6l-11,31h-8l-11-31H6.6z"/>
	<path d="M39.5,44.3v31h-6.2v-31H39.5z"/>
	<path d="M64,69.1H51.6l-2.2,6.2h-6.6l11.4-30.7h7.1l11.4,30.7h-6.6L64,69.1z M62.4,64.4l-4.6-13.1l-4.6,13.1H62.4z"/>
	<path d="M97.9,62c1.1,1.4,1.7,3,1.7,4.9c0,2.6-0.9,4.7-2.6,6.2c-1.7,1.5-4.3,2.3-7.6,2.3H76.1v-31h13.1c3.1,0,5.5,0.7,7.2,2.1
		c1.7,1.4,2.5,3.3,2.5,5.8c0,1.9-0.5,3.5-1.5,4.8c-1,1.2-2.3,2-4,2.4C95.3,59.8,96.8,60.6,97.9,62z M82.3,57.4h5.6
		c1.6,0,2.7-0.3,3.5-1c0.8-0.7,1.2-1.7,1.2-3s-0.4-2.3-1.2-3c-0.8-0.7-2-1.1-3.6-1.1h-5.5V57.4z M92,69.2c0.9-0.7,1.3-1.8,1.3-3.1
		c0-1.4-0.4-2.4-1.3-3.2c-0.9-0.7-2.2-1.1-3.8-1.1h-5.8v8.5h5.9C89.8,70.3,91.1,70,92,69.2z"/>
	<path d="M110.2,70.6h10.4v4.7H104v-31h6.2V70.6z"/>
	<path d="M130.5,49.3v8h11v4.7h-11v8.4h12.3v5h-18.5v-31h18.5v4.9H130.5z"/>
	<path d="M24.1,105c1.1,1.4,1.7,3,1.7,4.9c0,2.6-0.9,4.7-2.6,6.2c-1.7,1.5-4.3,2.3-7.6,2.3H2.3v-31h13.1c3.1,0,5.5,0.7,7.2,2.1
		c1.7,1.4,2.5,3.3,2.5,5.8c0,1.9-0.5,3.5-1.5,4.8c-1,1.2-2.3,2-4,2.4C21.5,102.8,23,103.6,24.1,105z M8.5,100.4h5.6
		c1.6,0,2.7-0.3,3.5-1c0.8-0.7,1.2-1.7,1.2-3s-0.4-2.3-1.2-3c-0.8-0.7-2-1.1-3.6-1.1H8.5V100.4z M18.2,112.2
		c0.9-0.7,1.3-1.8,1.3-3.1c0-1.4-0.4-2.4-1.3-3.2c-0.9-0.7-2.2-1.1-3.8-1.1H8.5v8.5h5.9C16,113.3,17.3,113,18.2,112.2z"/>
	<path d="M46.4,118.4l-7.3-12.1h-2.7v12.1h-6.2v-31H42c3.6,0,6.4,0.9,8.2,2.6c1.9,1.8,2.8,4.1,2.8,6.9c0,2.3-0.7,4.3-2,5.9
		c-1.3,1.6-3.2,2.6-5.7,3.2l7.7,12.4H46.4z M36.4,102h5.1c3.5,0,5.3-1.6,5.3-4.7c0-1.5-0.4-2.7-1.3-3.5c-0.9-0.8-2.2-1.3-4-1.3h-5.1
		V102z"/>
	<path d="M76.2,112.1H63.7l-2.2,6.2H55l11.4-30.7h7.1l11.4,30.7h-6.6L76.2,112.1z M74.5,107.4l-4.6-13.1l-4.6,13.1H74.5z"/>
	<path d="M114.5,118.4h-6.2L94.4,97.3v21.1h-6.2v-31h6.2l13.9,21.3V87.3h6.2V118.4z"/>
	<path d="M145.5,111c-1.3,2.3-3.2,4.2-5.6,5.5c-2.4,1.3-5.4,2-8.7,2h-11v-31h11c3.4,0,6.3,0.6,8.7,1.9c2.4,1.3,4.3,3.1,5.6,5.4
		c1.3,2.3,1.9,5.1,1.9,8.2C147.5,105.9,146.8,108.6,145.5,111z M138.4,110.2c1.8-1.8,2.7-4.2,2.7-7.4c0-3.2-0.9-5.7-2.7-7.4
		c-1.8-1.8-4.4-2.6-7.8-2.6h-4.3v20.1h4.3C134,112.8,136.6,112,138.4,110.2z"/>
	<path d="M158.3,87.3v31h-6.2v-31H158.3z"/>
	<path d="M190.2,118.4H184l-13.9-21.1v21.1h-6.2v-31h6.2l13.9,21.3V87.3h6.2V118.4z"/>
	<path d="M219.7,89.8c2.5,1.9,4.1,4.4,4.8,7.5h-6.5c-0.6-1.4-1.6-2.5-2.9-3.4c-1.3-0.8-2.9-1.3-4.7-1.3c-1.8,0-3.4,0.4-4.8,1.2
		c-1.4,0.8-2.4,2-3.2,3.5c-0.8,1.5-1.1,3.3-1.1,5.4c0,3.3,0.9,5.8,2.6,7.6c1.7,1.8,4.1,2.7,7.1,2.7c2.2,0,4.1-0.7,5.7-2
		c1.6-1.3,2.6-3.2,3.1-5.5h-10.5v-4.4H225v6c-0.4,2.1-1.3,3.9-2.6,5.7c-1.3,1.7-2.9,3.1-5,4.2c-2.1,1-4.4,1.6-7.1,1.6
		c-3,0-5.7-0.7-8.1-2c-2.3-1.3-4.1-3.2-5.4-5.6c-1.3-2.4-1.9-5.1-1.9-8.2c0-3.1,0.6-5.8,1.9-8.2c1.3-2.4,3.1-4.3,5.4-5.6
		c2.3-1.3,5-2,8-2C214,87,217.2,88,219.7,89.8z"/>
	<path d="M227.9,86.3h10.7v3.1h-3.5v9.8h-3.7v-9.8h-3.5V86.3z M256.8,86.3v13h-3.4l-0.1-8.3l-3.6,8.3h-2.6l-3.6-8.6v8.6h-3.3v-13h5
		l3.2,8.5l3.7-8.5H256.8z"/>
</g>
</svg>
