<?xml version="1.0" encoding="utf-8"?>
<!-- Generator: Adobe Illustrator 27.6.1, SVG Export Plug-In . SVG Version: 6.00 Build 0)  -->
<svg version="1.1" id="Ebene_1" xmlns="http://www.w3.org/2000/svg" xmlns:xlink="http://www.w3.org/1999/xlink" x="0px" y="0px"
	 viewBox="0 0 2270.3 470.9" style="enable-background:new 0 0 2270.3 470.9;" xml:space="preserve">
<style type="text/css">
	.st0{fill:none;stroke:#FFFFFF;stroke-width:2.1874;stroke-linecap:round;stroke-miterlimit:10;}
	.st1{fill:#FFFFFF;}
	.st2{fill:#020203;stroke:#020203;stroke-width:0.9048;stroke-miterlimit:10;}
	.st3{fill:none;stroke:#FFFFFF;stroke-width:2;stroke-linecap:round;stroke-miterlimit:10;}
	.st4{fill:none;stroke:#FFFFFF;stroke-width:2.0465;stroke-linecap:round;stroke-miterlimit:10;}
</style>
<line class="st0" x1="1.1" y1="1.1" x2="1.1" y2="469.8"/>
<line class="st0" x1="379.3" y1="1.1" x2="379.3" y2="469.8"/>
<line class="st0" x1="757.6" y1="1.1" x2="757.6" y2="469.8"/>
<line class="st0" x1="1135.8" y1="1.1" x2="1135.8" y2="469.8"/>
<line class="st0" x1="1514" y1="1.1" x2="1514" y2="469.8"/>
<line class="st0" x1="1892.3" y1="1.1" x2="1892.3" y2="469.8"/>
<line class="st0" x1="2269.2" y1="1.1" x2="2269.2" y2="469.8"/>
<path class="st1" d="M551.7,178.5H18.1c-9.4,0-17-7.6-17-17v-25.4c0-9.4,7.6-17,17-17h533.6c9.4,0,17,7.6,17,17v25.4
	C568.7,170.9,561.1,178.5,551.7,178.5z"/>
<g>
	<path class="st1" d="M1118.7,264h-533c-9.4,0-17-7.6-17-17v-25.4c0-9.4,7.6-17,17-17h533c9.4,0,17,7.6,17,17l0,25.4
		C1135.7,256.4,1128.1,264,1118.7,264z"/>
</g>
<path class="st1" d="M2252.2,351H1152.8c-9.4,0-17-7.6-17-17v-25.4c0-9.4,7.6-17,17-17h1099.4c9.4,0,17,7.6,17,17V334
	C2269.2,343.4,2261.6,351,2252.2,351z"/>
<g>
	<path class="st2" d="M786.8,228.2v12.7h-1.3v-12.7H786.8z"/>
	<path class="st2" d="M796.6,231.7c0.7,0.5,1.2,1.2,1.4,2.1v-6.2h1.3v13.3H798v-2.7c-0.3,0.9-0.7,1.5-1.4,2.1
		c-0.7,0.5-1.6,0.8-2.5,0.8c-0.9,0-1.7-0.2-2.4-0.6c-0.7-0.4-1.2-1-1.6-1.8c-0.4-0.8-0.6-1.7-0.6-2.7c0-1,0.2-1.9,0.6-2.7
		s0.9-1.3,1.6-1.7s1.5-0.6,2.4-0.6C795,230.9,795.9,231.2,796.6,231.7z M791.7,233.1c-0.7,0.7-1,1.7-1,2.9c0,1.2,0.3,2.2,1,2.9
		c0.7,0.7,1.6,1.1,2.7,1.1c0.7,0,1.3-0.2,1.9-0.5s1-0.8,1.3-1.4s0.5-1.3,0.5-2.1c0-0.8-0.2-1.5-0.5-2.1s-0.8-1.1-1.3-1.4
		s-1.2-0.5-1.9-0.5C793.3,232,792.4,232.4,791.7,233.1z"/>
	<path class="st2" d="M808.9,239.3c0.6-0.4,1-1,1.1-1.8h1.3c-0.2,1-0.7,1.9-1.5,2.5c-0.8,0.6-1.8,1-3.1,1c-0.9,0-1.8-0.2-2.5-0.6
		s-1.3-1-1.7-1.7c-0.4-0.8-0.6-1.7-0.6-2.7c0-1,0.2-1.9,0.6-2.7c0.4-0.8,1-1.3,1.7-1.7s1.6-0.6,2.5-0.6c1,0,1.8,0.2,2.5,0.6
		c0.7,0.4,1.2,0.9,1.6,1.6c0.4,0.7,0.5,1.4,0.5,2.2c0,0.3,0,0.6-0.1,0.9h-8.1c0,0.8,0.2,1.5,0.5,2.1c0.3,0.6,0.8,1,1.3,1.2
		c0.5,0.3,1.1,0.4,1.7,0.4C807.5,239.9,808.3,239.7,808.9,239.3z M805,232.3c-0.5,0.3-1,0.7-1.3,1.2s-0.5,1.2-0.5,2h6.9
		c0-0.8-0.1-1.5-0.4-2s-0.7-1-1.3-1.2c-0.5-0.3-1.1-0.4-1.7-0.4C806.1,231.9,805.5,232.1,805,232.3z"/>
	<path class="st2" d="M821.7,231.9c0.7,0.7,1.1,1.8,1.1,3.2v5.7h-1.2v-5.6c0-1.1-0.3-1.9-0.8-2.5c-0.5-0.6-1.3-0.9-2.2-0.9
		c-1,0-1.8,0.3-2.3,0.9s-0.9,1.6-0.9,2.8v5.2H814V231h1.3v2.4c0.3-0.8,0.7-1.5,1.4-1.9c0.7-0.4,1.4-0.7,2.3-0.7
		C820,230.9,821,231.2,821.7,231.9z"/>
	<path class="st2" d="M830.2,239.7v1.1h-1.2c-0.9,0-1.7-0.2-2.1-0.7c-0.5-0.5-0.7-1.2-0.7-2.3v-5.8h-1.5V231h1.5v-2.5h1.3v2.5h2.7
		v1.1h-2.7v5.8c0,0.7,0.1,1.2,0.4,1.4c0.3,0.3,0.7,0.4,1.3,0.4H830.2z"/>
	<path class="st2" d="M832.6,227.5c0.2-0.2,0.4-0.2,0.7-0.2c0.3,0,0.5,0.1,0.7,0.2c0.2,0.2,0.3,0.4,0.3,0.6c0,0.3-0.1,0.5-0.3,0.6
		c-0.2,0.2-0.4,0.2-0.7,0.2c-0.3,0-0.5-0.1-0.7-0.2c-0.2-0.2-0.3-0.4-0.3-0.6C832.4,227.9,832.5,227.6,832.6,227.5z M833.9,231v9.8
		h-1.3V231H833.9z"/>
	<path class="st2" d="M841.5,239.7v1.1h-1.2c-0.9,0-1.7-0.2-2.1-0.7c-0.5-0.5-0.7-1.2-0.7-2.3v-5.8H836V231h1.5v-2.5h1.3v2.5h2.7
		v1.1h-2.7v5.8c0,0.7,0.1,1.2,0.4,1.4c0.3,0.3,0.7,0.4,1.3,0.4H841.5z"/>
	<path class="st2" d="M844.2,231l3.4,8.2l3.1-8.2h1.4l-5.8,14.5H845l2-4.8l-4.1-9.7H844.2z"/>
	<path class="st2" d="M868.9,237.9c-0.5,1-1.3,1.7-2.3,2.2s-2.2,0.8-3.6,0.8h-3.8v-12.7h3.8c2.1,0,3.8,0.6,4.9,1.7
		c1.2,1.1,1.7,2.7,1.7,4.7C869.7,235.8,869.4,236.9,868.9,237.9z M867,238.3c0.9-0.9,1.4-2.2,1.4-3.8c0-1.6-0.5-2.9-1.4-3.8
		c-0.9-0.9-2.3-1.4-4.1-1.4h-2.5v10.4h2.5C864.7,239.7,866.1,239.3,867,238.3z"/>
	<path class="st2" d="M878.9,239.3c0.6-0.4,1-1,1.1-1.8h1.3c-0.2,1-0.7,1.9-1.5,2.5c-0.8,0.6-1.8,1-3.1,1c-0.9,0-1.8-0.2-2.5-0.6
		s-1.3-1-1.7-1.7c-0.4-0.8-0.6-1.7-0.6-2.7c0-1,0.2-1.9,0.6-2.7c0.4-0.8,1-1.3,1.7-1.7s1.6-0.6,2.5-0.6c1,0,1.8,0.2,2.5,0.6
		c0.7,0.4,1.2,0.9,1.6,1.6c0.4,0.7,0.5,1.4,0.5,2.2c0,0.3,0,0.6-0.1,0.9h-8.1c0,0.8,0.2,1.5,0.5,2.1c0.3,0.6,0.8,1,1.3,1.2
		c0.5,0.3,1.1,0.4,1.7,0.4C877.5,239.9,878.3,239.7,878.9,239.3z M874.9,232.3c-0.5,0.3-1,0.7-1.3,1.2s-0.5,1.2-0.5,2h6.9
		c0-0.8-0.1-1.5-0.4-2s-0.7-1-1.3-1.2c-0.5-0.3-1.1-0.4-1.7-0.4C876.1,231.9,875.5,232.1,874.9,232.3z"/>
	<path class="st2" d="M889.5,231.8c0.6,0.6,1,1.3,1.2,2.3h-1.2c-0.1-0.6-0.3-1.2-0.8-1.6c-0.4-0.4-1.1-0.6-1.8-0.6
		c-0.6,0-1.2,0.2-1.5,0.5c-0.4,0.3-0.5,0.7-0.5,1.3c0,0.4,0.1,0.7,0.4,1s0.5,0.4,0.9,0.5c0.3,0.1,0.8,0.3,1.4,0.4
		c0.7,0.2,1.3,0.3,1.7,0.5c0.4,0.2,0.8,0.4,1.1,0.8c0.3,0.4,0.5,0.9,0.5,1.5c0,0.8-0.3,1.4-0.9,1.9c-0.6,0.5-1.4,0.7-2.3,0.7
		c-1.1,0-2.1-0.3-2.8-0.8c-0.7-0.6-1.1-1.3-1.3-2.3h1.2c0.1,0.6,0.4,1.2,0.8,1.6c0.5,0.4,1.2,0.6,2,0.6c0.6,0,1.1-0.2,1.5-0.5
		s0.5-0.7,0.5-1.3c0-0.4-0.1-0.8-0.4-1c-0.2-0.3-0.5-0.4-0.9-0.6s-0.8-0.3-1.4-0.4c-0.7-0.2-1.3-0.3-1.7-0.5
		c-0.4-0.2-0.8-0.4-1.1-0.8c-0.3-0.4-0.5-0.8-0.5-1.4c0-0.8,0.3-1.5,0.9-1.9s1.4-0.7,2.4-0.7C888,230.9,888.9,231.2,889.5,231.8z"/>
	<path class="st2" d="M893.4,227.5c0.2-0.2,0.4-0.2,0.7-0.2c0.3,0,0.5,0.1,0.7,0.2c0.2,0.2,0.3,0.4,0.3,0.6c0,0.3-0.1,0.5-0.3,0.6
		c-0.2,0.2-0.4,0.2-0.7,0.2c-0.3,0-0.5-0.1-0.7-0.2c-0.2-0.2-0.3-0.4-0.3-0.6C893.2,227.9,893.2,227.6,893.4,227.5z M894.7,231v9.8
		h-1.3V231H894.7z"/>
	<path class="st2" d="M904.5,231.7c0.7,0.5,1.2,1.2,1.4,2.1V231h1.2v10.1c0,0.9-0.2,1.7-0.6,2.4c-0.4,0.7-0.9,1.2-1.6,1.6
		s-1.5,0.6-2.3,0.6c-1.3,0-2.3-0.3-3.2-0.9s-1.4-1.5-1.6-2.5h1.3c0.2,0.7,0.6,1.3,1.2,1.7s1.3,0.6,2.2,0.6c0.6,0,1.2-0.1,1.7-0.4
		c0.5-0.3,0.9-0.7,1.2-1.2c0.3-0.5,0.4-1.2,0.4-1.9v-2.9c-0.3,0.9-0.7,1.5-1.4,2.1c-0.7,0.5-1.6,0.8-2.5,0.8c-0.9,0-1.7-0.2-2.4-0.6
		c-0.7-0.4-1.2-1-1.6-1.8c-0.4-0.8-0.6-1.7-0.6-2.7c0-1,0.2-1.9,0.6-2.7s0.9-1.3,1.6-1.7s1.5-0.6,2.4-0.6
		C903,230.9,903.8,231.2,904.5,231.7z M899.6,233.1c-0.7,0.7-1,1.7-1,2.9c0,1.2,0.3,2.2,1,2.9c0.7,0.7,1.6,1.1,2.7,1.1
		c0.7,0,1.3-0.2,1.9-0.5s1-0.8,1.3-1.4s0.5-1.3,0.5-2.1c0-0.8-0.2-1.5-0.5-2.1s-0.8-1.1-1.3-1.4s-1.2-0.5-1.9-0.5
		C901.2,232,900.3,232.4,899.6,233.1z"/>
	<path class="st2" d="M918,231.9c0.7,0.7,1.1,1.8,1.1,3.2v5.7h-1.2v-5.6c0-1.1-0.3-1.9-0.8-2.5c-0.5-0.6-1.3-0.9-2.2-0.9
		c-1,0-1.8,0.3-2.3,0.9s-0.9,1.6-0.9,2.8v5.2h-1.3V231h1.3v2.4c0.3-0.8,0.7-1.5,1.4-1.9c0.7-0.4,1.4-0.7,2.3-0.7
		C916.3,230.9,917.3,231.2,918,231.9z"/>
</g>
<g>
	<path class="st2" d="M1593.7,315.1l-3.3,12.7h-1.5l-3.2-10.9l-3.2,10.9h-1.5l-3.3-12.7h1.4l2.6,11.1l3.2-11.1h1.4l3.2,11.1
		l2.7-11.1H1593.7z"/>
	<path class="st2" d="M1602.6,326.2c0.6-0.4,1-1,1.1-1.8h1.3c-0.2,1-0.7,1.9-1.5,2.5c-0.8,0.6-1.8,1-3.1,1c-0.9,0-1.8-0.2-2.5-0.6
		c-0.7-0.4-1.3-1-1.7-1.7c-0.4-0.8-0.6-1.7-0.6-2.7s0.2-1.9,0.6-2.7c0.4-0.8,1-1.3,1.7-1.7c0.7-0.4,1.6-0.6,2.5-0.6
		c1,0,1.8,0.2,2.5,0.6c0.7,0.4,1.2,0.9,1.6,1.6s0.5,1.4,0.5,2.2c0,0.3,0,0.6-0.1,0.9h-8.1c0,0.8,0.2,1.5,0.5,2.1
		c0.3,0.6,0.8,1,1.3,1.2c0.5,0.3,1.1,0.4,1.7,0.4C1601.2,326.8,1602,326.6,1602.6,326.2z M1598.6,319.2c-0.5,0.3-1,0.7-1.3,1.2
		s-0.5,1.2-0.5,2h6.9c0-0.8-0.1-1.5-0.4-2c-0.3-0.6-0.7-1-1.3-1.2s-1.1-0.4-1.7-0.4C1599.7,318.8,1599.2,319,1598.6,319.2z"/>
	<path class="st2" d="M1615.3,318.4c0.7,0.4,1.2,1,1.6,1.7c0.4,0.8,0.6,1.7,0.6,2.7c0,1-0.2,1.9-0.6,2.7c-0.4,0.8-0.9,1.3-1.6,1.8
		s-1.5,0.6-2.4,0.6c-1,0-1.9-0.3-2.6-0.8c-0.7-0.5-1.2-1.2-1.4-2.1v2.7h-1.3v-13.3h1.3v6.2c0.3-0.9,0.7-1.5,1.4-2.1
		c0.7-0.5,1.5-0.8,2.6-0.8C1613.8,317.8,1614.6,318,1615.3,318.4z M1610.7,319.4c-0.6,0.3-1,0.8-1.3,1.4c-0.3,0.6-0.5,1.3-0.5,2.1
		s0.2,1.5,0.5,2.1c0.3,0.6,0.7,1.1,1.3,1.4c0.6,0.3,1.2,0.5,1.9,0.5c1.1,0,2-0.4,2.7-1.1s1-1.7,1-2.9s-0.3-2.2-1-2.9
		s-1.5-1.1-2.7-1.1C1611.9,318.9,1611.2,319.1,1610.7,319.4z"/>
	<path class="st2" d="M1626.8,318.6c0.7,0.5,1.2,1.2,1.4,2.1v-6.2h1.3v13.3h-1.3v-2.7c-0.3,0.9-0.7,1.5-1.4,2.1
		c-0.7,0.5-1.6,0.8-2.5,0.8c-0.9,0-1.7-0.2-2.4-0.6s-1.2-1-1.6-1.8c-0.4-0.8-0.6-1.7-0.6-2.7c0-1,0.2-1.9,0.6-2.7
		c0.4-0.8,0.9-1.3,1.6-1.7c0.7-0.4,1.5-0.6,2.4-0.6C1625.3,317.8,1626.1,318.1,1626.8,318.6z M1621.9,320c-0.7,0.7-1,1.7-1,2.9
		s0.3,2.2,1,2.9s1.6,1.1,2.7,1.1c0.7,0,1.3-0.2,1.9-0.5c0.6-0.3,1-0.8,1.3-1.4c0.3-0.6,0.5-1.3,0.5-2.1s-0.2-1.5-0.5-2.1
		c-0.3-0.6-0.8-1.1-1.3-1.4c-0.6-0.3-1.2-0.5-1.9-0.5C1623.5,318.9,1622.6,319.3,1621.9,320z"/>
	<path class="st2" d="M1639.1,326.2c0.6-0.4,1-1,1.1-1.8h1.3c-0.2,1-0.7,1.9-1.5,2.5c-0.8,0.6-1.8,1-3.1,1c-0.9,0-1.8-0.2-2.5-0.6
		c-0.7-0.4-1.3-1-1.7-1.7c-0.4-0.8-0.6-1.7-0.6-2.7s0.2-1.9,0.6-2.7c0.4-0.8,1-1.3,1.7-1.7c0.7-0.4,1.6-0.6,2.5-0.6
		c1,0,1.8,0.2,2.5,0.6c0.7,0.4,1.2,0.9,1.6,1.6s0.5,1.4,0.5,2.2c0,0.3,0,0.6-0.1,0.9h-8.1c0,0.8,0.2,1.5,0.5,2.1
		c0.3,0.6,0.8,1,1.3,1.2c0.5,0.3,1.1,0.4,1.7,0.4C1637.8,326.8,1638.5,326.6,1639.1,326.2z M1635.2,319.2c-0.5,0.3-1,0.7-1.3,1.2
		s-0.5,1.2-0.5,2h6.9c0-0.8-0.1-1.5-0.4-2c-0.3-0.6-0.7-1-1.3-1.2s-1.1-0.4-1.7-0.4C1636.3,318.8,1635.7,319,1635.2,319.2z"/>
	<path class="st2" d="M1649.8,318.6c0.6,0.6,1,1.3,1.2,2.3h-1.2c-0.1-0.6-0.3-1.2-0.8-1.6s-1.1-0.6-1.8-0.6c-0.6,0-1.2,0.2-1.5,0.5
		c-0.4,0.3-0.5,0.7-0.5,1.3c0,0.4,0.1,0.7,0.4,1c0.2,0.2,0.5,0.4,0.9,0.5s0.8,0.3,1.4,0.4c0.7,0.2,1.3,0.3,1.7,0.5
		c0.4,0.2,0.8,0.4,1.1,0.8c0.3,0.4,0.5,0.9,0.5,1.5c0,0.8-0.3,1.4-0.9,1.9s-1.4,0.7-2.3,0.7c-1.1,0-2.1-0.3-2.8-0.8
		c-0.7-0.6-1.1-1.3-1.3-2.3h1.2c0.1,0.6,0.4,1.2,0.8,1.6s1.2,0.6,2,0.6c0.6,0,1.1-0.2,1.5-0.5c0.3-0.3,0.5-0.7,0.5-1.3
		c0-0.4-0.1-0.8-0.4-1c-0.2-0.3-0.5-0.4-0.9-0.6c-0.4-0.1-0.8-0.3-1.4-0.4c-0.7-0.2-1.3-0.3-1.7-0.5c-0.4-0.2-0.8-0.4-1.1-0.8
		c-0.3-0.4-0.5-0.8-0.5-1.4c0-0.8,0.3-1.5,0.9-1.9s1.4-0.7,2.4-0.7C1648.2,317.8,1649.1,318.1,1649.8,318.6z"/>
	<path class="st2" d="M1653.7,314.4c0.2-0.2,0.4-0.2,0.7-0.2s0.5,0.1,0.7,0.2s0.3,0.4,0.3,0.6c0,0.3-0.1,0.5-0.3,0.6
		c-0.2,0.2-0.4,0.2-0.7,0.2s-0.5-0.1-0.7-0.2c-0.2-0.2-0.3-0.4-0.3-0.6C1653.4,314.7,1653.5,314.5,1653.7,314.4z M1655,317.9v9.8
		h-1.3v-9.8H1655z"/>
	<path class="st2" d="M1664.8,318.6c0.7,0.5,1.2,1.2,1.4,2.1v-2.7h1.2V328c0,0.9-0.2,1.7-0.6,2.4c-0.4,0.7-0.9,1.2-1.6,1.6
		c-0.7,0.4-1.5,0.6-2.3,0.6c-1.3,0-2.3-0.3-3.2-0.9c-0.8-0.6-1.4-1.5-1.6-2.5h1.3c0.2,0.7,0.6,1.3,1.2,1.7c0.6,0.4,1.3,0.6,2.2,0.6
		c0.6,0,1.2-0.1,1.7-0.4c0.5-0.3,0.9-0.7,1.2-1.2s0.4-1.2,0.4-1.9v-2.9c-0.3,0.9-0.7,1.5-1.4,2.1c-0.7,0.5-1.6,0.8-2.5,0.8
		c-0.9,0-1.7-0.2-2.4-0.6s-1.2-1-1.6-1.8c-0.4-0.8-0.6-1.7-0.6-2.7c0-1,0.2-1.9,0.6-2.7c0.4-0.8,0.9-1.3,1.6-1.7
		c0.7-0.4,1.5-0.6,2.4-0.6C1663.2,317.8,1664.1,318.1,1664.8,318.6z M1659.9,320c-0.7,0.7-1,1.7-1,2.9s0.3,2.2,1,2.9
		s1.6,1.1,2.7,1.1c0.7,0,1.3-0.2,1.9-0.5c0.6-0.3,1-0.8,1.3-1.4c0.3-0.6,0.5-1.3,0.5-2.1s-0.2-1.5-0.5-2.1c-0.3-0.6-0.8-1.1-1.3-1.4
		c-0.6-0.3-1.2-0.5-1.9-0.5C1661.4,318.9,1660.5,319.3,1659.9,320z"/>
	<path class="st2" d="M1678.2,318.8c0.7,0.7,1.1,1.8,1.1,3.2v5.7h-1.2v-5.6c0-1.1-0.3-1.9-0.8-2.5c-0.5-0.6-1.3-0.9-2.2-0.9
		c-1,0-1.8,0.3-2.3,0.9s-0.9,1.6-0.9,2.8v5.2h-1.3v-9.8h1.3v2.4c0.3-0.8,0.7-1.5,1.4-1.9c0.7-0.4,1.4-0.7,2.3-0.7
		C1676.6,317.7,1677.5,318.1,1678.2,318.8z"/>
	<path class="st2" d="M1696.8,327.8l-3.1-3.4c0,0.1,0,0.1,0,0.3c0,0.2,0,0.4-0.1,0.6c-0.1,0.8-0.4,1.5-1,2c-0.6,0.5-1.3,0.8-2.2,0.8
		c-0.7,0-1.3-0.2-1.9-0.5c-0.6-0.3-1-0.7-1.3-1.3c-0.3-0.6-0.5-1.2-0.5-2c0-0.7,0.1-1.4,0.4-1.9s0.7-0.9,1.2-1.2
		c0.5-0.3,1-0.4,1.6-0.4c0.2,0,0.5,0,0.7,0.1c-0.2-0.3-0.3-0.4-0.4-0.4c-0.4-0.4-0.7-0.8-0.9-1.2s-0.3-0.8-0.3-1.4
		c0-0.5,0.1-0.9,0.4-1.3c0.2-0.4,0.6-0.8,1.1-1c0.5-0.3,1-0.4,1.7-0.4c1,0,1.8,0.3,2.3,0.8c0.5,0.5,0.8,1.2,0.9,2
		c0.1,0.3,0.1,0.6,0.1,0.9h-1.2c0-0.1,0-0.2,0-0.3c0-0.1,0-0.2,0-0.3c0-0.7-0.2-1.2-0.5-1.5s-0.9-0.6-1.5-0.6
		c-0.6,0-1.1,0.2-1.4,0.5c-0.3,0.4-0.5,0.8-0.5,1.3c0,0.4,0.1,0.8,0.2,1.1c0.2,0.3,0.4,0.6,0.7,1l6.9,7.9H1696.8z M1692.2,326.1
		c0.5-0.5,0.7-1.1,0.7-1.8c0-0.5-0.1-1-0.4-1.4s-0.6-0.7-1-1c-0.4-0.2-0.9-0.4-1.3-0.4c-0.7,0-1.2,0.2-1.7,0.6
		c-0.4,0.4-0.7,1.1-0.7,1.9c0,0.8,0.3,1.5,0.8,1.9c0.5,0.5,1.1,0.7,1.9,0.7S1691.7,326.5,1692.2,326.1z"/>
	<path class="st2" d="M1714.7,324.8c-0.5,1-1.3,1.7-2.3,2.2c-1,0.5-2.2,0.8-3.6,0.8h-3.8v-12.7h3.8c2.1,0,3.8,0.6,4.9,1.7
		c1.2,1.1,1.7,2.7,1.7,4.7C1715.5,322.7,1715.2,323.8,1714.7,324.8z M1712.8,325.2c0.9-0.9,1.4-2.2,1.4-3.8c0-1.6-0.5-2.9-1.4-3.8
		s-2.3-1.4-4.1-1.4h-2.5v10.4h2.5C1710.5,326.6,1711.9,326.2,1712.8,325.2z"/>
	<path class="st2" d="M1724.7,326.2c0.6-0.4,1-1,1.1-1.8h1.3c-0.2,1-0.7,1.9-1.5,2.5c-0.8,0.6-1.8,1-3.1,1c-0.9,0-1.8-0.2-2.5-0.6
		c-0.7-0.4-1.3-1-1.7-1.7c-0.4-0.8-0.6-1.7-0.6-2.7s0.2-1.9,0.6-2.7c0.4-0.8,1-1.3,1.7-1.7c0.7-0.4,1.6-0.6,2.5-0.6
		c1,0,1.8,0.2,2.5,0.6c0.7,0.4,1.2,0.9,1.6,1.6s0.5,1.4,0.5,2.2c0,0.3,0,0.6-0.1,0.9h-8.1c0,0.8,0.2,1.5,0.5,2.1
		c0.3,0.6,0.8,1,1.3,1.2c0.5,0.3,1.1,0.4,1.7,0.4C1723.3,326.8,1724.1,326.6,1724.7,326.2z M1720.8,319.2c-0.5,0.3-1,0.7-1.3,1.2
		s-0.5,1.2-0.5,2h6.9c0-0.8-0.1-1.5-0.4-2c-0.3-0.6-0.7-1-1.3-1.2c-0.5-0.3-1.1-0.4-1.7-0.4C1721.9,318.8,1721.3,319,1720.8,319.2z"
		/>
	<path class="st2" d="M1733.4,326.3l3.3-8.4h1.4l-4,9.8h-1.4l-4-9.8h1.4L1733.4,326.3z"/>
	<path class="st2" d="M1746.6,326.2c0.6-0.4,1-1,1.1-1.8h1.3c-0.2,1-0.7,1.9-1.5,2.5c-0.8,0.6-1.8,1-3.1,1c-0.9,0-1.8-0.2-2.5-0.6
		c-0.7-0.4-1.3-1-1.7-1.7c-0.4-0.8-0.6-1.7-0.6-2.7s0.2-1.9,0.6-2.7c0.4-0.8,1-1.3,1.7-1.7c0.7-0.4,1.6-0.6,2.5-0.6
		c1,0,1.8,0.2,2.5,0.6c0.7,0.4,1.2,0.9,1.6,1.6s0.5,1.4,0.5,2.2c0,0.3,0,0.6-0.1,0.9h-8.1c0,0.8,0.2,1.5,0.5,2.1
		c0.3,0.6,0.8,1,1.3,1.2c0.5,0.3,1.1,0.4,1.7,0.4C1745.3,326.8,1746,326.6,1746.6,326.2z M1742.7,319.2c-0.5,0.3-1,0.7-1.3,1.2
		s-0.5,1.2-0.5,2h6.9c0-0.8-0.1-1.5-0.4-2c-0.3-0.6-0.7-1-1.3-1.2s-1.1-0.4-1.7-0.4C1743.8,318.8,1743.2,319,1742.7,319.2z"/>
	<path class="st2" d="M1753,314.4v13.3h-1.3v-13.3H1753z"/>
	<path class="st2" d="M1763.1,318.4c0.7,0.4,1.3,1,1.7,1.7c0.4,0.8,0.6,1.7,0.6,2.7s-0.2,1.9-0.6,2.7c-0.4,0.8-1,1.3-1.7,1.7
		s-1.6,0.6-2.5,0.6c-0.9,0-1.8-0.2-2.5-0.6s-1.3-1-1.8-1.8s-0.6-1.7-0.6-2.7c0-1,0.2-1.9,0.6-2.7c0.4-0.8,1-1.3,1.8-1.7
		c0.7-0.4,1.6-0.6,2.5-0.6C1761.5,317.8,1762.3,318,1763.1,318.4z M1758.7,319.3c-0.6,0.3-1,0.7-1.3,1.3c-0.3,0.6-0.5,1.3-0.5,2.2
		s0.2,1.6,0.5,2.2c0.3,0.6,0.8,1,1.3,1.3c0.6,0.3,1.2,0.4,1.8,0.4c0.6,0,1.2-0.1,1.8-0.4s1-0.7,1.3-1.3s0.5-1.3,0.5-2.2
		s-0.2-1.6-0.5-2.2c-0.3-0.6-0.8-1-1.3-1.3c-0.5-0.3-1.1-0.4-1.8-0.4C1759.9,318.9,1759.3,319,1758.7,319.3z"/>
	<path class="st2" d="M1775.7,318.4c0.7,0.4,1.2,1,1.6,1.7c0.4,0.8,0.6,1.7,0.6,2.7c0,1-0.2,1.9-0.6,2.7c-0.4,0.8-0.9,1.3-1.6,1.8
		c-0.7,0.4-1.5,0.6-2.4,0.6c-1,0-1.9-0.3-2.6-0.8c-0.7-0.5-1.2-1.2-1.4-2.1v7.3h-1.3v-14.5h1.3v2.7c0.3-0.9,0.7-1.5,1.4-2.1
		c0.7-0.5,1.5-0.8,2.6-0.8C1774.2,317.8,1775,318,1775.7,318.4z M1771.1,319.4c-0.6,0.3-1,0.8-1.3,1.4c-0.3,0.6-0.5,1.3-0.5,2.1
		s0.2,1.5,0.5,2.1c0.3,0.6,0.7,1.1,1.3,1.4c0.6,0.3,1.2,0.5,1.9,0.5c1.1,0,2-0.4,2.7-1.1c0.7-0.7,1-1.7,1-2.9s-0.3-2.2-1-2.9
		c-0.7-0.7-1.5-1.1-2.7-1.1C1772.3,318.9,1771.6,319.1,1771.1,319.4z"/>
	<path class="st2" d="M1795.2,318.8c0.7,0.7,1.1,1.8,1.1,3.2v5.7h-1.3v-5.6c0-1.1-0.3-1.9-0.8-2.4c-0.5-0.6-1.2-0.8-2.1-0.8
		c-0.9,0-1.7,0.3-2.3,0.9c-0.6,0.6-0.8,1.5-0.8,2.8v5.2h-1.2v-5.6c0-1.1-0.3-1.9-0.8-2.4c-0.5-0.6-1.2-0.8-2.1-0.8
		c-0.9,0-1.7,0.3-2.3,0.9c-0.6,0.6-0.8,1.5-0.8,2.8v5.2h-1.3v-9.8h1.3v2.3c0.2-0.8,0.7-1.5,1.3-1.9s1.4-0.6,2.2-0.6
		c0.9,0,1.6,0.2,2.2,0.7s1.1,1.1,1.3,2c0.3-0.9,0.7-1.5,1.4-2c0.7-0.5,1.4-0.7,2.2-0.7C1793.6,317.7,1794.5,318.1,1795.2,318.8z"/>
	<path class="st2" d="M1805.8,326.2c0.6-0.4,1-1,1.1-1.8h1.3c-0.2,1-0.7,1.9-1.5,2.5c-0.8,0.6-1.8,1-3.1,1c-0.9,0-1.8-0.2-2.5-0.6
		c-0.7-0.4-1.3-1-1.7-1.7c-0.4-0.8-0.6-1.7-0.6-2.7s0.2-1.9,0.6-2.7c0.4-0.8,1-1.3,1.7-1.7c0.7-0.4,1.6-0.6,2.5-0.6
		c1,0,1.8,0.2,2.5,0.6c0.7,0.4,1.2,0.9,1.6,1.6s0.5,1.4,0.5,2.2c0,0.3,0,0.6-0.1,0.9h-8.1c0,0.8,0.2,1.5,0.5,2.1
		c0.3,0.6,0.8,1,1.3,1.2c0.5,0.3,1.1,0.4,1.7,0.4C1804.4,326.8,1805.2,326.6,1805.8,326.2z M1801.9,319.2c-0.5,0.3-1,0.7-1.3,1.2
		s-0.5,1.2-0.5,2h6.9c0-0.8-0.1-1.5-0.4-2c-0.3-0.6-0.7-1-1.3-1.2s-1.1-0.4-1.7-0.4C1803,318.8,1802.4,319,1801.9,319.2z"/>
	<path class="st2" d="M1818.6,318.8c0.7,0.7,1.1,1.8,1.1,3.2v5.7h-1.2v-5.6c0-1.1-0.3-1.9-0.8-2.5c-0.5-0.6-1.3-0.9-2.2-0.9
		c-1,0-1.8,0.3-2.3,0.9s-0.9,1.6-0.9,2.8v5.2h-1.3v-9.8h1.3v2.4c0.3-0.8,0.7-1.5,1.4-1.9c0.7-0.4,1.4-0.7,2.3-0.7
		C1816.9,317.7,1817.9,318.1,1818.6,318.8z"/>
	<path class="st2" d="M1827.1,326.6v1.1h-1.2c-0.9,0-1.7-0.2-2.1-0.7c-0.5-0.5-0.7-1.2-0.7-2.3V319h-1.5v-1.1h1.5v-2.5h1.3v2.5h2.7
		v1.1h-2.7v5.8c0,0.7,0.1,1.2,0.4,1.4s0.7,0.4,1.3,0.4H1827.1z"/>
</g>
<g>
	<path class="st2" d="M172.9,147.7l6,6.4h-1.6l-5.5-6v6h-1.3v-12.7h1.3v6l5.5-6h1.6L172.9,147.7z"/>
	<path class="st2" d="M180.9,140.7c0.2-0.2,0.4-0.2,0.7-0.2c0.3,0,0.5,0.1,0.7,0.2c0.2,0.2,0.3,0.4,0.3,0.6c0,0.3-0.1,0.5-0.3,0.6
		c-0.2,0.2-0.4,0.2-0.7,0.2c-0.3,0-0.5-0.1-0.7-0.2c-0.2-0.2-0.3-0.4-0.3-0.6C180.7,141.1,180.8,140.9,180.9,140.7z M182.2,144.3
		v9.8H181v-9.8H182.2z"/>
	<path class="st2" d="M192.8,145.1c0.8,0.7,1.3,1.5,1.5,2.6H193c-0.1-0.8-0.5-1.4-1.1-1.8c-0.6-0.4-1.3-0.7-2.2-0.7
		c-0.6,0-1.2,0.1-1.8,0.4c-0.5,0.3-1,0.7-1.3,1.3c-0.3,0.6-0.5,1.3-0.5,2.2s0.2,1.6,0.5,2.2c0.3,0.6,0.7,1,1.3,1.3
		c0.5,0.3,1.1,0.4,1.8,0.4c0.9,0,1.6-0.2,2.2-0.7s1-1.1,1.1-1.8h1.3c-0.2,1.1-0.7,2-1.5,2.6c-0.8,0.7-1.9,1-3.1,1
		c-0.9,0-1.8-0.2-2.5-0.6c-0.7-0.4-1.3-1-1.7-1.7c-0.4-0.8-0.6-1.7-0.6-2.7s0.2-1.9,0.6-2.7c0.4-0.8,1-1.3,1.7-1.7
		c0.7-0.4,1.6-0.6,2.5-0.6C190.9,144.1,191.9,144.5,192.8,145.1z"/>
	<path class="st2" d="M202.2,154.1l-4-4.5v4.5h-1.3v-13.3h1.3v7.8l3.9-4.3h1.6l-4.5,4.9l4.6,5H202.2z"/>
	<path class="st2" d="M210.9,146.9v1.1h-7v-1.1H210.9z"/>
	<path class="st2" d="M223.5,142.1c0.9,0.6,1.7,1.3,2.2,2.3c0.5,1,0.8,2.1,0.8,3.3s-0.3,2.4-0.8,3.4c-0.5,1-1.3,1.8-2.2,2.3
		c-0.9,0.6-2,0.8-3.2,0.8c-1.2,0-2.2-0.3-3.2-0.8c-0.9-0.6-1.7-1.3-2.2-2.3c-0.5-1-0.8-2.1-0.8-3.4s0.3-2.4,0.8-3.3
		c0.5-1,1.3-1.8,2.2-2.3s2-0.8,3.2-0.8C221.5,141.2,222.6,141.5,223.5,142.1z M217.8,143.1c-0.7,0.4-1.3,1.1-1.7,1.9
		c-0.4,0.8-0.6,1.7-0.6,2.8c0,1.1,0.2,2,0.6,2.8c0.4,0.8,1,1.4,1.7,1.9c0.7,0.4,1.6,0.6,2.5,0.6c0.9,0,1.8-0.2,2.5-0.6
		c0.7-0.4,1.3-1,1.7-1.9c0.4-0.8,0.6-1.7,0.6-2.8c0-1.1-0.2-2-0.6-2.8c-0.4-0.8-1-1.4-1.7-1.9c-0.7-0.4-1.6-0.6-2.5-0.6
		C219.4,142.4,218.6,142.6,217.8,143.1z"/>
	<path class="st2" d="M231.4,142.1c-0.4,0.3-0.5,0.9-0.5,1.7v0.4h2.5v1.1h-2.5v8.7h-1.3v-8.7h-1.5v-1.1h1.5v-0.5
		c0-1.1,0.3-1.9,0.9-2.5c0.6-0.6,1.5-0.8,2.8-0.8v1.1C232.4,141.6,231.8,141.8,231.4,142.1z"/>
	<path class="st2" d="M237.8,142.1c-0.4,0.3-0.5,0.9-0.5,1.7v0.4h2.5v1.1h-2.5v8.7H236v-8.7h-1.5v-1.1h1.5v-0.5
		c0-1.1,0.3-1.9,0.9-2.5c0.6-0.6,1.5-0.8,2.8-0.8v1.1C238.8,141.6,238.2,141.8,237.8,142.1z"/>
	<path class="st2" d="M256.4,154.1l-3.1-3.4c0,0.1,0,0.1,0,0.3c0,0.2,0,0.4-0.1,0.6c-0.1,0.8-0.4,1.5-1,2c-0.6,0.5-1.3,0.8-2.2,0.8
		c-0.7,0-1.3-0.2-1.9-0.5c-0.6-0.3-1-0.7-1.3-1.3c-0.3-0.6-0.5-1.2-0.5-2c0-0.7,0.1-1.4,0.4-1.9s0.7-0.9,1.2-1.2
		c0.5-0.3,1-0.4,1.6-0.4c0.2,0,0.5,0,0.7,0.1c-0.2-0.3-0.3-0.4-0.4-0.4c-0.4-0.4-0.7-0.8-0.9-1.2c-0.2-0.4-0.3-0.8-0.3-1.4
		c0-0.5,0.1-0.9,0.4-1.3c0.2-0.4,0.6-0.8,1.1-1c0.5-0.3,1-0.4,1.7-0.4c1,0,1.8,0.3,2.3,0.8c0.5,0.5,0.8,1.2,0.9,2
		c0.1,0.3,0.1,0.6,0.1,0.9h-1.2c0-0.1,0-0.2,0-0.3c0-0.1,0-0.2,0-0.3c0-0.7-0.2-1.2-0.5-1.5s-0.9-0.6-1.5-0.6
		c-0.6,0-1.1,0.2-1.4,0.5c-0.3,0.4-0.5,0.8-0.5,1.3c0,0.4,0.1,0.8,0.2,1.1c0.2,0.3,0.4,0.6,0.7,1l6.9,7.9H256.4z M251.8,152.4
		c0.5-0.5,0.7-1.1,0.7-1.8c0-0.5-0.1-1-0.4-1.4c-0.3-0.4-0.6-0.7-1-1c-0.4-0.2-0.9-0.4-1.3-0.4c-0.7,0-1.2,0.2-1.7,0.6
		c-0.4,0.4-0.7,1.1-0.7,1.9c0,0.8,0.3,1.5,0.8,1.9c0.5,0.5,1.1,0.7,1.9,0.7C250.8,153.1,251.3,152.9,251.8,152.4z"/>
	<path class="st2" d="M272.4,148.6c0.5,0.6,0.7,1.3,0.7,2.1c0,1-0.3,1.8-1,2.5c-0.7,0.6-1.7,0.9-3,0.9h-4.4v-12.7h4.4
		c1.3,0,2.2,0.3,2.9,0.9c0.6,0.6,1,1.3,1,2.3c0,0.8-0.2,1.5-0.7,2c-0.4,0.5-1,0.8-1.7,1C271.2,147.7,271.9,148,272.4,148.6z
		 M265.9,147.1h2.9c0.9,0,1.6-0.2,2-0.6s0.7-1,0.7-1.7c0-0.7-0.2-1.3-0.7-1.7c-0.5-0.4-1.2-0.6-2.1-0.6h-2.8V147.1z M271,152.3
		c0.5-0.4,0.8-1,0.8-1.8c0-0.8-0.3-1.4-0.8-1.8c-0.5-0.4-1.3-0.7-2.2-0.7h-2.9v5h2.9C269.8,153,270.5,152.8,271,152.3z"/>
	<path class="st2" d="M278.3,144.6c0.6-0.4,1.4-0.6,2.3-0.6v1.4h-0.4c-0.9,0-1.7,0.3-2.4,0.8s-0.9,1.3-0.9,2.5v5.4h-1.3v-9.8h1.3v2
		C277.2,145.6,277.6,145,278.3,144.6z"/>
	<path class="st2" d="M289.3,144.9c0.7,0.5,1.2,1.2,1.4,2.1v-2.7h1.2v9.8h-1.2v-2.7c-0.3,0.9-0.7,1.5-1.4,2.1
		c-0.7,0.5-1.6,0.8-2.5,0.8c-0.9,0-1.7-0.2-2.4-0.6s-1.2-1-1.6-1.8s-0.6-1.7-0.6-2.7c0-1,0.2-1.9,0.6-2.7c0.4-0.8,0.9-1.3,1.6-1.7
		c0.7-0.4,1.5-0.6,2.4-0.6C287.8,144.1,288.6,144.4,289.3,144.9z M284.4,146.3c-0.7,0.7-1,1.7-1,2.9s0.3,2.2,1,2.9
		c0.7,0.7,1.6,1.1,2.7,1.1c0.7,0,1.3-0.2,1.9-0.5c0.6-0.3,1-0.8,1.3-1.4c0.3-0.6,0.5-1.3,0.5-2.1s-0.2-1.5-0.5-2.1
		c-0.3-0.6-0.8-1.1-1.3-1.4c-0.6-0.3-1.2-0.5-1.9-0.5C286,145.2,285.1,145.6,284.4,146.3z"/>
	<path class="st2" d="M302.8,145.2c0.7,0.7,1.1,1.8,1.1,3.2v5.7h-1.2v-5.6c0-1.1-0.3-1.9-0.8-2.5c-0.5-0.6-1.3-0.9-2.2-0.9
		c-1,0-1.8,0.3-2.3,0.9s-0.9,1.6-0.9,2.8v5.2h-1.3v-9.8h1.3v2.4c0.3-0.8,0.7-1.5,1.4-1.9c0.7-0.4,1.4-0.7,2.3-0.7
		C301.2,144.1,302.1,144.4,302.8,145.2z"/>
	<path class="st2" d="M313.6,144.9c0.7,0.5,1.2,1.2,1.4,2.1v-6.2h1.3v13.3H315v-2.7c-0.3,0.9-0.7,1.5-1.4,2.1
		c-0.7,0.5-1.6,0.8-2.5,0.8c-0.9,0-1.7-0.2-2.4-0.6s-1.2-1-1.6-1.8s-0.6-1.7-0.6-2.7c0-1,0.2-1.9,0.6-2.7c0.4-0.8,0.9-1.3,1.6-1.7
		c0.7-0.4,1.5-0.6,2.4-0.6C312,144.1,312.9,144.4,313.6,144.9z M308.7,146.3c-0.7,0.7-1,1.7-1,2.9s0.3,2.2,1,2.9
		c0.7,0.7,1.6,1.1,2.7,1.1c0.7,0,1.3-0.2,1.9-0.5c0.6-0.3,1-0.8,1.3-1.4c0.3-0.6,0.5-1.3,0.5-2.1s-0.2-1.5-0.5-2.1
		c-0.3-0.6-0.8-1.1-1.3-1.4c-0.6-0.3-1.2-0.5-1.9-0.5C310.3,145.2,309.4,145.6,308.7,146.3z"/>
	<path class="st2" d="M331.7,152.5c-0.3,0.5-0.7,0.9-1.3,1.2c-0.6,0.3-1.3,0.5-2.1,0.5c-0.8,0-1.5-0.2-2.2-0.5
		c-0.6-0.3-1.1-0.7-1.5-1.2c-0.4-0.5-0.6-1.1-0.7-1.8h1.3c0,0.4,0.2,0.7,0.4,1.1s0.6,0.7,1,0.9c0.4,0.2,1,0.4,1.6,0.4
		c0.8,0,1.4-0.2,1.8-0.6c0.4-0.4,0.6-1,0.6-1.6c0-0.6-0.1-1-0.4-1.4c-0.3-0.4-0.6-0.6-1-0.8c-0.4-0.2-1-0.4-1.7-0.6
		c-0.8-0.3-1.4-0.5-1.9-0.7s-0.9-0.6-1.2-1s-0.5-1.1-0.5-1.8c0-1,0.3-1.7,1-2.3c0.7-0.6,1.6-0.9,2.8-0.9c1.2,0,2.2,0.3,2.9,0.9
		s1.1,1.3,1.3,2.2h-1.4c-0.1-0.5-0.4-1-0.9-1.4s-1.1-0.6-1.9-0.6c-0.7,0-1.3,0.2-1.8,0.6c-0.4,0.4-0.7,0.9-0.7,1.6
		c0,0.5,0.1,1,0.4,1.3c0.3,0.3,0.6,0.6,1,0.8c0.4,0.2,1,0.4,1.6,0.6c0.8,0.3,1.5,0.5,2,0.7s0.9,0.6,1.3,1.1c0.3,0.5,0.5,1.1,0.5,1.9
		C332.2,151.4,332,152,331.7,152.5z"/>
	<path class="st2" d="M339.3,153v1.1h-1.2c-0.9,0-1.7-0.2-2.1-0.7c-0.5-0.5-0.7-1.2-0.7-2.3v-5.8h-1.5v-1.1h1.5v-2.5h1.3v2.5h2.7
		v1.1h-2.7v5.8c0,0.7,0.1,1.2,0.4,1.4s0.7,0.4,1.3,0.4H339.3z"/>
	<path class="st2" d="M344.4,144.6c0.6-0.4,1.4-0.6,2.3-0.6v1.4h-0.4c-0.9,0-1.7,0.3-2.4,0.8s-0.9,1.3-0.9,2.5v5.4h-1.3v-9.8h1.3v2
		C343.3,145.6,343.7,145,344.4,144.6z"/>
	<path class="st2" d="M355.4,144.9c0.7,0.5,1.2,1.2,1.4,2.1v-2.7h1.2v9.8h-1.2v-2.7c-0.3,0.9-0.7,1.5-1.4,2.1
		c-0.7,0.5-1.6,0.8-2.5,0.8c-0.9,0-1.7-0.2-2.4-0.6s-1.2-1-1.6-1.8s-0.6-1.7-0.6-2.7c0-1,0.2-1.9,0.6-2.7c0.4-0.8,0.9-1.3,1.6-1.7
		c0.7-0.4,1.5-0.6,2.4-0.6C353.9,144.1,354.7,144.4,355.4,144.9z M350.5,146.3c-0.7,0.7-1,1.7-1,2.9s0.3,2.2,1,2.9
		c0.7,0.7,1.6,1.1,2.7,1.1c0.7,0,1.3-0.2,1.9-0.5c0.6-0.3,1-0.8,1.3-1.4c0.3-0.6,0.5-1.3,0.5-2.1s-0.2-1.5-0.5-2.1
		c-0.3-0.6-0.8-1.1-1.3-1.4c-0.6-0.3-1.2-0.5-1.9-0.5C352.1,145.2,351.2,145.6,350.5,146.3z"/>
	<path class="st2" d="M365.7,153v1.1h-1.2c-0.9,0-1.7-0.2-2.1-0.7c-0.5-0.5-0.7-1.2-0.7-2.3v-5.8h-1.5v-1.1h1.5v-2.5h1.3v2.5h2.7
		v1.1h-2.7v5.8c0,0.7,0.1,1.2,0.4,1.4s0.7,0.4,1.3,0.4H365.7z"/>
	<path class="st2" d="M374.6,152.5c0.6-0.4,1-1,1.1-1.8h1.3c-0.2,1-0.7,1.9-1.5,2.5c-0.8,0.6-1.8,1-3.1,1c-0.9,0-1.8-0.2-2.5-0.6
		c-0.7-0.4-1.3-1-1.7-1.7c-0.4-0.8-0.6-1.7-0.6-2.7s0.2-1.9,0.6-2.7c0.4-0.8,1-1.3,1.7-1.7c0.7-0.4,1.6-0.6,2.5-0.6
		c1,0,1.8,0.2,2.5,0.6c0.7,0.4,1.2,0.9,1.6,1.6s0.5,1.4,0.5,2.2c0,0.3,0,0.6-0.1,0.9h-8.1c0,0.8,0.2,1.5,0.5,2.1
		c0.3,0.6,0.8,1,1.3,1.2c0.5,0.3,1.1,0.4,1.7,0.4C373.3,153.2,374,152.9,374.6,152.5z M370.7,145.5c-0.5,0.3-1,0.7-1.3,1.2
		s-0.5,1.2-0.5,2h6.9c0-0.8-0.1-1.5-0.4-2c-0.3-0.6-0.7-1-1.3-1.2c-0.5-0.3-1.1-0.4-1.7-0.4C371.8,145.2,371.2,145.3,370.7,145.5z"
		/>
	<path class="st2" d="M386.4,144.9c0.7,0.5,1.2,1.2,1.4,2.1v-2.7h1.2v10.1c0,0.9-0.2,1.7-0.6,2.4c-0.4,0.7-0.9,1.2-1.6,1.6
		c-0.7,0.4-1.5,0.6-2.3,0.6c-1.3,0-2.3-0.3-3.2-0.9s-1.4-1.5-1.6-2.5h1.3c0.2,0.7,0.6,1.3,1.2,1.7c0.6,0.4,1.3,0.6,2.2,0.6
		c0.6,0,1.2-0.1,1.7-0.4c0.5-0.3,0.9-0.7,1.2-1.2s0.4-1.2,0.4-1.9v-2.9c-0.3,0.9-0.7,1.5-1.4,2.1c-0.7,0.5-1.6,0.8-2.5,0.8
		c-0.9,0-1.7-0.2-2.4-0.6s-1.2-1-1.6-1.8s-0.6-1.7-0.6-2.7c0-1,0.2-1.9,0.6-2.7c0.4-0.8,0.9-1.3,1.6-1.7c0.7-0.4,1.5-0.6,2.4-0.6
		C384.8,144.1,385.7,144.4,386.4,144.9z M381.5,146.3c-0.7,0.7-1,1.7-1,2.9s0.3,2.2,1,2.9c0.7,0.7,1.6,1.1,2.7,1.1
		c0.7,0,1.3-0.2,1.9-0.5c0.6-0.3,1-0.8,1.3-1.4c0.3-0.6,0.5-1.3,0.5-2.1s-0.2-1.5-0.5-2.1c-0.3-0.6-0.8-1.1-1.3-1.4
		c-0.6-0.3-1.2-0.5-1.9-0.5C383.1,145.2,382.2,145.6,381.5,146.3z"/>
	<path class="st2" d="M392.5,144.3l3.4,8.2l3.1-8.2h1.4l-5.8,14.5h-1.4l2-4.8l-4.1-9.7H392.5z"/>
</g>
<path class="st3" d="M568.7,235.8L568.7,235.8c-31.6,0-57.3-25.7-57.3-57.3v0"/>
<path class="st4" d="M1135.8,321.3L1135.8,321.3c-31.6,0-57.3-25.7-57.3-57.3v0"/>
</svg>
